<?xml version="1.0" encoding="utf-8"?>
<!-- Generator: Adobe Illustrator 19.0.0, SVG Export Plug-In . SVG Version: 6.00 Build 0)  -->
<svg version="1.1" id="Layer_1" xmlns="http://www.w3.org/2000/svg" xmlns:xlink="http://www.w3.org/1999/xlink" x="0px" y="0px"
	 viewBox="-208.6 372 159.2 18.1" style="enable-background:new -208.6 372 159.2 18.1;" xml:space="preserve">
<style type="text/css">
	.st0{enable-background:new    ;}
	.st1{fill:#D7FF5E;}
</style>
<g class="st0">
	<path class="st1" d="M-184.6,380.2h-5.3v-5.8h5.3c1.5,0,2.5,0.2,3.2,0.7c0.7,0.4,1,1.2,1,2.2C-180.4,379.2-181.8,380.2-184.6,380.2
		 M-178,377.3c0-3.3-2.1-5-6.4-5h-7.7v16.6h2.2v-6.7h5.2c0.6,0,0.9,0,1.1,0l3.8,6.7h2.6l-4.2-7.2C-179.1,381.1-178,379.6-178,377.3"
		/>
	<path class="st1" d="M-171.2,381.4h10.3v-2h-10.3v-5h10.9v-2h-13.2v16.6h13.3l0.4-2h-11.4V381.4z"/>
	<path class="st1" d="M-153.3,381.4h10.3v-2h-10.3v-5h10.9v-2h-13.2v16.6h13.3l0.4-2h-11.4V381.4z"/>
	<path class="st1" d="M-116.3,381.4h10.3v-2h-10.3v-5h10.9v-2h-13.2v16.6h13.3l0.4-2h-11.4V381.4z"/>
	<path class="st1" d="M-93.2,380.2h-5.3v-5.8h5.3c1.5,0,2.5,0.2,3.2,0.7c0.7,0.4,1,1.2,1,2.2C-89,379.2-90.4,380.2-93.2,380.2
		 M-86.6,377.3c0-3.3-2.1-5-6.4-5h-7.7v16.6h2.2v-6.7h5.2c0.6,0,0.9,0,1.1,0l3.8,6.7h2.6l-4.2-7.2
		C-87.7,381.1-86.6,379.6-86.6,377.3"/>
	<path class="st1" d="M-68.9,381.3c-0.9-0.8-2.3-1.3-4.3-1.6l-3.2-0.5c-1-0.1-1.8-0.3-2.3-0.5c-0.6-0.2-1-0.5-1.3-0.8
		c-0.3-0.3-0.4-0.8-0.4-1.3c0-0.8,0.4-1.4,1.3-1.9c0.9-0.4,2.2-0.6,3.8-0.6c1.4,0,2.6,0.2,3.4,0.6c0.8,0.4,1.4,1.1,1.8,2.1l2.2-0.4
		c-0.3-1-0.8-1.8-1.4-2.5c-0.6-0.6-1.4-1.1-2.4-1.4c-1-0.3-2.2-0.5-3.6-0.5c-2.3,0-4.2,0.4-5.5,1.2c-1.3,0.8-2,1.9-2,3.4
		c0,0.9,0.2,1.7,0.6,2.3c0.4,0.6,1,1.1,1.9,1.5c0.9,0.4,2.1,0.7,3.7,1l2.9,0.4c1.3,0.2,2.3,0.5,2.9,1c0.6,0.4,0.9,1,0.9,1.8
		c0,0.9-0.4,1.6-1.3,2.1c-0.9,0.5-2.1,0.7-3.7,0.7c-1.8,0-3.1-0.3-4.1-0.8c-1-0.5-1.5-1.3-1.8-2.4h-2.4c0.2,1.8,1,3.1,2.3,3.9
		c1.4,0.9,3.3,1.3,5.9,1.3c2.3,0,4.1-0.4,5.4-1.3c1.3-0.8,1.9-2,1.9-3.5C-67.6,383.2-68,382.1-68.9,381.3"/>
	<path class="st1" d="M-60.8,386.9v-5.5h10.3v-2h-10.3v-5h10.9v-2h-13.2v16.6h13.3l0.4-2H-60.8z"/>
	<path class="st1" d="M-130.7,385.8c-1.2,0-2.1,0.9-2.1,2.1c0,1.2,0.9,2.1,2.1,2.1s2.1-0.9,2.1-2.1
		C-128.6,386.8-129.5,385.8-130.7,385.8"/>
	<path class="st1" d="M-129.4,383.5c0.8,0.1,1.5,0.2,2.2,0.5l5.3-11.6h-2.6L-129.4,383.5z"/>
	<path class="st1" d="M-136.9,372.4h-2.7l5.3,11.6c0.7-0.2,1.4-0.4,2.2-0.5L-136.9,372.4z"/>
	<path class="st1" d="M-208.6,388.9h2.3v-7.3h9.7v-2h-9.7v-5.2h10.2v-2h-12.5V388.9z"/>
</g>
</svg>
